<?xml version="1.0" encoding="utf-8" standalone="no"?>
<!DOCTYPE svg PUBLIC "-//W3C//DTD SVG 1.1//EN"
  "http://www.w3.org/Graphics/SVG/1.1/DTD/svg11.dtd">
<svg xmlns:xlink="http://www.w3.org/1999/xlink" width="432pt" height="288pt" viewBox="0 0 432 288" xmlns="http://www.w3.org/2000/svg" version="1.1">
 <metadata>
  <rdf:RDF xmlns:dc="http://purl.org/dc/elements/1.1/" xmlns:cc="http://creativecommons.org/ns#" xmlns:rdf="http://www.w3.org/1999/02/22-rdf-syntax-ns#">
   <cc:Work>
    <dc:type rdf:resource="http://purl.org/dc/dcmitype/StillImage"/>
    <dc:date>2022-07-06T22:13:22.592614</dc:date>
    <dc:format>image/svg+xml</dc:format>
    <dc:creator>
     <cc:Agent>
      <dc:title>Matplotlib v3.5.1, https://matplotlib.org/</dc:title>
     </cc:Agent>
    </dc:creator>
   </cc:Work>
  </rdf:RDF>
 </metadata>
 <defs>
  <style type="text/css">*{stroke-linejoin: round; stroke-linecap: butt}</style>
 </defs>
 <g id="figure_1">
  <g id="patch_1">
   <path d="M 0 288 
L 432 288 
L 432 0 
L 0 0 
L 0 288 
z
" style="fill: none"/>
  </g>
  <g id="axes_1">
   <g id="patch_2">
    <path d="M 54 230.4 
L 388.8 230.4 
L 388.8 34.56 
L 54 34.56 
z
" style="fill: #ffffff"/>
   </g>
   <g id="matplotlib.axis_1">
    <g id="xtick_1">
     <g id="line2d_1">
      <defs>
       <path id="m33873df964" d="M 0 0 
L 0 3.5 
" style="stroke: #000000; stroke-width: 0.8"/>
      </defs>
      <g>
       <use xlink:href="#m33873df964" x="62.092612" y="230.4" style="stroke: #000000; stroke-width: 0.8"/>
      </g>
     </g>
     <g id="text_1">
      <!-- 2020-01 -->
      <g transform="translate(24.867791 264.871846)rotate(-30)scale(0.1 -0.1)">
       <defs>
        <path id="DejaVuSans-32" d="M 1228 531 
L 3431 531 
L 3431 0 
L 469 0 
L 469 531 
Q 828 903 1448 1529 
Q 2069 2156 2228 2338 
Q 2531 2678 2651 2914 
Q 2772 3150 2772 3378 
Q 2772 3750 2511 3984 
Q 2250 4219 1831 4219 
Q 1534 4219 1204 4116 
Q 875 4013 500 3803 
L 500 4441 
Q 881 4594 1212 4672 
Q 1544 4750 1819 4750 
Q 2544 4750 2975 4387 
Q 3406 4025 3406 3419 
Q 3406 3131 3298 2873 
Q 3191 2616 2906 2266 
Q 2828 2175 2409 1742 
Q 1991 1309 1228 531 
z
" transform="scale(0.015625)"/>
        <path id="DejaVuSans-30" d="M 2034 4250 
Q 1547 4250 1301 3770 
Q 1056 3291 1056 2328 
Q 1056 1369 1301 889 
Q 1547 409 2034 409 
Q 2525 409 2770 889 
Q 3016 1369 3016 2328 
Q 3016 3291 2770 3770 
Q 2525 4250 2034 4250 
z
M 2034 4750 
Q 2819 4750 3233 4129 
Q 3647 3509 3647 2328 
Q 3647 1150 3233 529 
Q 2819 -91 2034 -91 
Q 1250 -91 836 529 
Q 422 1150 422 2328 
Q 422 3509 836 4129 
Q 1250 4750 2034 4750 
z
" transform="scale(0.015625)"/>
        <path id="DejaVuSans-2d" d="M 313 2009 
L 1997 2009 
L 1997 1497 
L 313 1497 
L 313 2009 
z
" transform="scale(0.015625)"/>
        <path id="DejaVuSans-31" d="M 794 531 
L 1825 531 
L 1825 4091 
L 703 3866 
L 703 4441 
L 1819 4666 
L 2450 4666 
L 2450 531 
L 3481 531 
L 3481 0 
L 794 0 
L 794 531 
z
" transform="scale(0.015625)"/>
       </defs>
       <use xlink:href="#DejaVuSans-32"/>
       <use xlink:href="#DejaVuSans-30" x="63.623047"/>
       <use xlink:href="#DejaVuSans-32" x="127.246094"/>
       <use xlink:href="#DejaVuSans-30" x="190.869141"/>
       <use xlink:href="#DejaVuSans-2d" x="254.492188"/>
       <use xlink:href="#DejaVuSans-30" x="290.576172"/>
       <use xlink:href="#DejaVuSans-31" x="354.199219"/>
      </g>
     </g>
    </g>
    <g id="xtick_2">
     <g id="line2d_2">
      <g>
       <use xlink:href="#m33873df964" x="92.970082" y="230.4" style="stroke: #000000; stroke-width: 0.8"/>
      </g>
     </g>
     <g id="text_2">
      <!-- 2020-04 -->
      <g transform="translate(55.745261 264.871846)rotate(-30)scale(0.1 -0.1)">
       <defs>
        <path id="DejaVuSans-34" d="M 2419 4116 
L 825 1625 
L 2419 1625 
L 2419 4116 
z
M 2253 4666 
L 3047 4666 
L 3047 1625 
L 3713 1625 
L 3713 1100 
L 3047 1100 
L 3047 0 
L 2419 0 
L 2419 1100 
L 313 1100 
L 313 1709 
L 2253 4666 
z
" transform="scale(0.015625)"/>
       </defs>
       <use xlink:href="#DejaVuSans-32"/>
       <use xlink:href="#DejaVuSans-30" x="63.623047"/>
       <use xlink:href="#DejaVuSans-32" x="127.246094"/>
       <use xlink:href="#DejaVuSans-30" x="190.869141"/>
       <use xlink:href="#DejaVuSans-2d" x="254.492188"/>
       <use xlink:href="#DejaVuSans-30" x="290.576172"/>
       <use xlink:href="#DejaVuSans-34" x="354.199219"/>
      </g>
     </g>
    </g>
    <g id="xtick_3">
     <g id="line2d_3">
      <g>
       <use xlink:href="#m33873df964" x="123.847552" y="230.4" style="stroke: #000000; stroke-width: 0.8"/>
      </g>
     </g>
     <g id="text_3">
      <!-- 2020-07 -->
      <g transform="translate(86.622732 264.871846)rotate(-30)scale(0.1 -0.1)">
       <defs>
        <path id="DejaVuSans-37" d="M 525 4666 
L 3525 4666 
L 3525 4397 
L 1831 0 
L 1172 0 
L 2766 4134 
L 525 4134 
L 525 4666 
z
" transform="scale(0.015625)"/>
       </defs>
       <use xlink:href="#DejaVuSans-32"/>
       <use xlink:href="#DejaVuSans-30" x="63.623047"/>
       <use xlink:href="#DejaVuSans-32" x="127.246094"/>
       <use xlink:href="#DejaVuSans-30" x="190.869141"/>
       <use xlink:href="#DejaVuSans-2d" x="254.492188"/>
       <use xlink:href="#DejaVuSans-30" x="290.576172"/>
       <use xlink:href="#DejaVuSans-37" x="354.199219"/>
      </g>
     </g>
    </g>
    <g id="xtick_4">
     <g id="line2d_4">
      <g>
       <use xlink:href="#m33873df964" x="155.064336" y="230.4" style="stroke: #000000; stroke-width: 0.8"/>
      </g>
     </g>
     <g id="text_4">
      <!-- 2020-10 -->
      <g transform="translate(117.839515 264.871846)rotate(-30)scale(0.1 -0.1)">
       <use xlink:href="#DejaVuSans-32"/>
       <use xlink:href="#DejaVuSans-30" x="63.623047"/>
       <use xlink:href="#DejaVuSans-32" x="127.246094"/>
       <use xlink:href="#DejaVuSans-30" x="190.869141"/>
       <use xlink:href="#DejaVuSans-2d" x="254.492188"/>
       <use xlink:href="#DejaVuSans-31" x="290.576172"/>
       <use xlink:href="#DejaVuSans-30" x="354.199219"/>
      </g>
     </g>
    </g>
    <g id="xtick_5">
     <g id="line2d_5">
      <g>
       <use xlink:href="#m33873df964" x="186.281119" y="230.4" style="stroke: #000000; stroke-width: 0.8"/>
      </g>
     </g>
     <g id="text_5">
      <!-- 2021-01 -->
      <g transform="translate(149.056298 264.871846)rotate(-30)scale(0.1 -0.1)">
       <use xlink:href="#DejaVuSans-32"/>
       <use xlink:href="#DejaVuSans-30" x="63.623047"/>
       <use xlink:href="#DejaVuSans-32" x="127.246094"/>
       <use xlink:href="#DejaVuSans-31" x="190.869141"/>
       <use xlink:href="#DejaVuSans-2d" x="254.492188"/>
       <use xlink:href="#DejaVuSans-30" x="290.576172"/>
       <use xlink:href="#DejaVuSans-31" x="354.199219"/>
      </g>
     </g>
    </g>
    <g id="xtick_6">
     <g id="line2d_6">
      <g>
       <use xlink:href="#m33873df964" x="216.819276" y="230.4" style="stroke: #000000; stroke-width: 0.8"/>
      </g>
     </g>
     <g id="text_6">
      <!-- 2021-04 -->
      <g transform="translate(179.594456 264.871846)rotate(-30)scale(0.1 -0.1)">
       <use xlink:href="#DejaVuSans-32"/>
       <use xlink:href="#DejaVuSans-30" x="63.623047"/>
       <use xlink:href="#DejaVuSans-32" x="127.246094"/>
       <use xlink:href="#DejaVuSans-31" x="190.869141"/>
       <use xlink:href="#DejaVuSans-2d" x="254.492188"/>
       <use xlink:href="#DejaVuSans-30" x="290.576172"/>
       <use xlink:href="#DejaVuSans-34" x="354.199219"/>
      </g>
     </g>
    </g>
    <g id="xtick_7">
     <g id="line2d_7">
      <g>
       <use xlink:href="#m33873df964" x="247.696747" y="230.4" style="stroke: #000000; stroke-width: 0.8"/>
      </g>
     </g>
     <g id="text_7">
      <!-- 2021-07 -->
      <g transform="translate(210.471926 264.871846)rotate(-30)scale(0.1 -0.1)">
       <use xlink:href="#DejaVuSans-32"/>
       <use xlink:href="#DejaVuSans-30" x="63.623047"/>
       <use xlink:href="#DejaVuSans-32" x="127.246094"/>
       <use xlink:href="#DejaVuSans-31" x="190.869141"/>
       <use xlink:href="#DejaVuSans-2d" x="254.492188"/>
       <use xlink:href="#DejaVuSans-30" x="290.576172"/>
       <use xlink:href="#DejaVuSans-37" x="354.199219"/>
      </g>
     </g>
    </g>
    <g id="xtick_8">
     <g id="line2d_8">
      <g>
       <use xlink:href="#m33873df964" x="278.91353" y="230.4" style="stroke: #000000; stroke-width: 0.8"/>
      </g>
     </g>
     <g id="text_8">
      <!-- 2021-10 -->
      <g transform="translate(241.688709 264.871846)rotate(-30)scale(0.1 -0.1)">
       <use xlink:href="#DejaVuSans-32"/>
       <use xlink:href="#DejaVuSans-30" x="63.623047"/>
       <use xlink:href="#DejaVuSans-32" x="127.246094"/>
       <use xlink:href="#DejaVuSans-31" x="190.869141"/>
       <use xlink:href="#DejaVuSans-2d" x="254.492188"/>
       <use xlink:href="#DejaVuSans-31" x="290.576172"/>
       <use xlink:href="#DejaVuSans-30" x="354.199219"/>
      </g>
     </g>
    </g>
    <g id="xtick_9">
     <g id="line2d_9">
      <g>
       <use xlink:href="#m33873df964" x="310.130313" y="230.4" style="stroke: #000000; stroke-width: 0.8"/>
      </g>
     </g>
     <g id="text_9">
      <!-- 2022-01 -->
      <g transform="translate(272.905492 264.871846)rotate(-30)scale(0.1 -0.1)">
       <use xlink:href="#DejaVuSans-32"/>
       <use xlink:href="#DejaVuSans-30" x="63.623047"/>
       <use xlink:href="#DejaVuSans-32" x="127.246094"/>
       <use xlink:href="#DejaVuSans-32" x="190.869141"/>
       <use xlink:href="#DejaVuSans-2d" x="254.492188"/>
       <use xlink:href="#DejaVuSans-30" x="290.576172"/>
       <use xlink:href="#DejaVuSans-31" x="354.199219"/>
      </g>
     </g>
    </g>
    <g id="xtick_10">
     <g id="line2d_10">
      <g>
       <use xlink:href="#m33873df964" x="340.668471" y="230.4" style="stroke: #000000; stroke-width: 0.8"/>
      </g>
     </g>
     <g id="text_10">
      <!-- 2022-04 -->
      <g transform="translate(303.44365 264.871846)rotate(-30)scale(0.1 -0.1)">
       <use xlink:href="#DejaVuSans-32"/>
       <use xlink:href="#DejaVuSans-30" x="63.623047"/>
       <use xlink:href="#DejaVuSans-32" x="127.246094"/>
       <use xlink:href="#DejaVuSans-32" x="190.869141"/>
       <use xlink:href="#DejaVuSans-2d" x="254.492188"/>
       <use xlink:href="#DejaVuSans-30" x="290.576172"/>
       <use xlink:href="#DejaVuSans-34" x="354.199219"/>
      </g>
     </g>
    </g>
    <g id="xtick_11">
     <g id="line2d_11">
      <g>
       <use xlink:href="#m33873df964" x="371.545941" y="230.4" style="stroke: #000000; stroke-width: 0.8"/>
      </g>
     </g>
     <g id="text_11">
      <!-- 2022-07 -->
      <g transform="translate(334.32112 264.871846)rotate(-30)scale(0.1 -0.1)">
       <use xlink:href="#DejaVuSans-32"/>
       <use xlink:href="#DejaVuSans-30" x="63.623047"/>
       <use xlink:href="#DejaVuSans-32" x="127.246094"/>
       <use xlink:href="#DejaVuSans-32" x="190.869141"/>
       <use xlink:href="#DejaVuSans-2d" x="254.492188"/>
       <use xlink:href="#DejaVuSans-30" x="290.576172"/>
       <use xlink:href="#DejaVuSans-37" x="354.199219"/>
      </g>
     </g>
    </g>
    <g id="text_12">
     <!-- Date -->
     <g transform="translate(209.449219 278.271346)scale(0.1 -0.1)">
      <defs>
       <path id="DejaVuSans-44" d="M 1259 4147 
L 1259 519 
L 2022 519 
Q 2988 519 3436 956 
Q 3884 1394 3884 2338 
Q 3884 3275 3436 3711 
Q 2988 4147 2022 4147 
L 1259 4147 
z
M 628 4666 
L 1925 4666 
Q 3281 4666 3915 4102 
Q 4550 3538 4550 2338 
Q 4550 1131 3912 565 
Q 3275 0 1925 0 
L 628 0 
L 628 4666 
z
" transform="scale(0.015625)"/>
       <path id="DejaVuSans-61" d="M 2194 1759 
Q 1497 1759 1228 1600 
Q 959 1441 959 1056 
Q 959 750 1161 570 
Q 1363 391 1709 391 
Q 2188 391 2477 730 
Q 2766 1069 2766 1631 
L 2766 1759 
L 2194 1759 
z
M 3341 1997 
L 3341 0 
L 2766 0 
L 2766 531 
Q 2569 213 2275 61 
Q 1981 -91 1556 -91 
Q 1019 -91 701 211 
Q 384 513 384 1019 
Q 384 1609 779 1909 
Q 1175 2209 1959 2209 
L 2766 2209 
L 2766 2266 
Q 2766 2663 2505 2880 
Q 2244 3097 1772 3097 
Q 1472 3097 1187 3025 
Q 903 2953 641 2809 
L 641 3341 
Q 956 3463 1253 3523 
Q 1550 3584 1831 3584 
Q 2591 3584 2966 3190 
Q 3341 2797 3341 1997 
z
" transform="scale(0.015625)"/>
       <path id="DejaVuSans-74" d="M 1172 4494 
L 1172 3500 
L 2356 3500 
L 2356 3053 
L 1172 3053 
L 1172 1153 
Q 1172 725 1289 603 
Q 1406 481 1766 481 
L 2356 481 
L 2356 0 
L 1766 0 
Q 1100 0 847 248 
Q 594 497 594 1153 
L 594 3053 
L 172 3053 
L 172 3500 
L 594 3500 
L 594 4494 
L 1172 4494 
z
" transform="scale(0.015625)"/>
       <path id="DejaVuSans-65" d="M 3597 1894 
L 3597 1613 
L 953 1613 
Q 991 1019 1311 708 
Q 1631 397 2203 397 
Q 2534 397 2845 478 
Q 3156 559 3463 722 
L 3463 178 
Q 3153 47 2828 -22 
Q 2503 -91 2169 -91 
Q 1331 -91 842 396 
Q 353 884 353 1716 
Q 353 2575 817 3079 
Q 1281 3584 2069 3584 
Q 2775 3584 3186 3129 
Q 3597 2675 3597 1894 
z
M 3022 2063 
Q 3016 2534 2758 2815 
Q 2500 3097 2075 3097 
Q 1594 3097 1305 2825 
Q 1016 2553 972 2059 
L 3022 2063 
z
" transform="scale(0.015625)"/>
      </defs>
      <use xlink:href="#DejaVuSans-44"/>
      <use xlink:href="#DejaVuSans-61" x="77.001953"/>
      <use xlink:href="#DejaVuSans-74" x="138.28125"/>
      <use xlink:href="#DejaVuSans-65" x="177.490234"/>
     </g>
    </g>
   </g>
   <g id="matplotlib.axis_2">
    <g id="ytick_1">
     <g id="line2d_12">
      <defs>
       <path id="mc0014e46a0" d="M 0 0 
L -3.5 0 
" style="stroke: #000000; stroke-width: 0.8"/>
      </defs>
      <g>
       <use xlink:href="#mc0014e46a0" x="54" y="221.498182" style="stroke: #000000; stroke-width: 0.8"/>
      </g>
     </g>
     <g id="text_13">
      <!-- 0 -->
      <g transform="translate(40.6375 225.297401)scale(0.1 -0.1)">
       <use xlink:href="#DejaVuSans-30"/>
      </g>
     </g>
    </g>
    <g id="ytick_2">
     <g id="line2d_13">
      <g>
       <use xlink:href="#mc0014e46a0" x="54" y="183.106474" style="stroke: #000000; stroke-width: 0.8"/>
      </g>
     </g>
     <g id="text_14">
      <!-- 200000 -->
      <g transform="translate(8.825 186.905692)scale(0.1 -0.1)">
       <use xlink:href="#DejaVuSans-32"/>
       <use xlink:href="#DejaVuSans-30" x="63.623047"/>
       <use xlink:href="#DejaVuSans-30" x="127.246094"/>
       <use xlink:href="#DejaVuSans-30" x="190.869141"/>
       <use xlink:href="#DejaVuSans-30" x="254.492188"/>
       <use xlink:href="#DejaVuSans-30" x="318.115234"/>
      </g>
     </g>
    </g>
    <g id="ytick_3">
     <g id="line2d_14">
      <g>
       <use xlink:href="#mc0014e46a0" x="54" y="144.714766" style="stroke: #000000; stroke-width: 0.8"/>
      </g>
     </g>
     <g id="text_15">
      <!-- 400000 -->
      <g transform="translate(8.825 148.513984)scale(0.1 -0.1)">
       <use xlink:href="#DejaVuSans-34"/>
       <use xlink:href="#DejaVuSans-30" x="63.623047"/>
       <use xlink:href="#DejaVuSans-30" x="127.246094"/>
       <use xlink:href="#DejaVuSans-30" x="190.869141"/>
       <use xlink:href="#DejaVuSans-30" x="254.492188"/>
       <use xlink:href="#DejaVuSans-30" x="318.115234"/>
      </g>
     </g>
    </g>
    <g id="ytick_4">
     <g id="line2d_15">
      <g>
       <use xlink:href="#mc0014e46a0" x="54" y="106.323057" style="stroke: #000000; stroke-width: 0.8"/>
      </g>
     </g>
     <g id="text_16">
      <!-- 600000 -->
      <g transform="translate(8.825 110.122276)scale(0.1 -0.1)">
       <defs>
        <path id="DejaVuSans-36" d="M 2113 2584 
Q 1688 2584 1439 2293 
Q 1191 2003 1191 1497 
Q 1191 994 1439 701 
Q 1688 409 2113 409 
Q 2538 409 2786 701 
Q 3034 994 3034 1497 
Q 3034 2003 2786 2293 
Q 2538 2584 2113 2584 
z
M 3366 4563 
L 3366 3988 
Q 3128 4100 2886 4159 
Q 2644 4219 2406 4219 
Q 1781 4219 1451 3797 
Q 1122 3375 1075 2522 
Q 1259 2794 1537 2939 
Q 1816 3084 2150 3084 
Q 2853 3084 3261 2657 
Q 3669 2231 3669 1497 
Q 3669 778 3244 343 
Q 2819 -91 2113 -91 
Q 1303 -91 875 529 
Q 447 1150 447 2328 
Q 447 3434 972 4092 
Q 1497 4750 2381 4750 
Q 2619 4750 2861 4703 
Q 3103 4656 3366 4563 
z
" transform="scale(0.015625)"/>
       </defs>
       <use xlink:href="#DejaVuSans-36"/>
       <use xlink:href="#DejaVuSans-30" x="63.623047"/>
       <use xlink:href="#DejaVuSans-30" x="127.246094"/>
       <use xlink:href="#DejaVuSans-30" x="190.869141"/>
       <use xlink:href="#DejaVuSans-30" x="254.492188"/>
       <use xlink:href="#DejaVuSans-30" x="318.115234"/>
      </g>
     </g>
    </g>
    <g id="ytick_5">
     <g id="line2d_16">
      <g>
       <use xlink:href="#mc0014e46a0" x="54" y="67.931349" style="stroke: #000000; stroke-width: 0.8"/>
      </g>
     </g>
     <g id="text_17">
      <!-- 800000 -->
      <g transform="translate(8.825 71.730568)scale(0.1 -0.1)">
       <defs>
        <path id="DejaVuSans-38" d="M 2034 2216 
Q 1584 2216 1326 1975 
Q 1069 1734 1069 1313 
Q 1069 891 1326 650 
Q 1584 409 2034 409 
Q 2484 409 2743 651 
Q 3003 894 3003 1313 
Q 3003 1734 2745 1975 
Q 2488 2216 2034 2216 
z
M 1403 2484 
Q 997 2584 770 2862 
Q 544 3141 544 3541 
Q 544 4100 942 4425 
Q 1341 4750 2034 4750 
Q 2731 4750 3128 4425 
Q 3525 4100 3525 3541 
Q 3525 3141 3298 2862 
Q 3072 2584 2669 2484 
Q 3125 2378 3379 2068 
Q 3634 1759 3634 1313 
Q 3634 634 3220 271 
Q 2806 -91 2034 -91 
Q 1263 -91 848 271 
Q 434 634 434 1313 
Q 434 1759 690 2068 
Q 947 2378 1403 2484 
z
M 1172 3481 
Q 1172 3119 1398 2916 
Q 1625 2713 2034 2713 
Q 2441 2713 2670 2916 
Q 2900 3119 2900 3481 
Q 2900 3844 2670 4047 
Q 2441 4250 2034 4250 
Q 1625 4250 1398 4047 
Q 1172 3844 1172 3481 
z
" transform="scale(0.015625)"/>
       </defs>
       <use xlink:href="#DejaVuSans-38"/>
       <use xlink:href="#DejaVuSans-30" x="63.623047"/>
       <use xlink:href="#DejaVuSans-30" x="127.246094"/>
       <use xlink:href="#DejaVuSans-30" x="190.869141"/>
       <use xlink:href="#DejaVuSans-30" x="254.492188"/>
       <use xlink:href="#DejaVuSans-30" x="318.115234"/>
      </g>
     </g>
    </g>
   </g>
   <g id="line2d_17">
    <path d="M 69.218182 221.498182 
L 90.934205 221.391069 
L 96.363211 220.927297 
L 98.738401 220.690036 
L 100.095652 220.57275 
L 101.792216 220.342399 
L 102.810155 220.244309 
L 112.650228 219.092749 
L 116.043357 218.262913 
L 116.721982 218.064235 
L 117.739921 217.647685 
L 118.079234 217.386814 
L 118.75786 217.282388 
L 119.775798 216.83858 
L 120.793737 216.362907 
L 121.811675 215.924282 
L 125.204804 214.175155 
L 126.562055 213.39446 
L 127.579994 212.738538 
L 128.25862 212.265744 
L 130.294497 211.050646 
L 131.312435 210.591673 
L 133.348313 209.353157 
L 135.723503 208.016742 
L 137.080754 207.198806 
L 138.777318 206.25629 
L 139.795257 205.653348 
L 140.13457 205.605934 
L 140.473883 205.420886 
L 141.152508 205.298417 
L 142.50976 204.532694 
L 151.671207 200.99509 
L 152.689146 200.627298 
L 158.796777 198.309206 
L 159.814716 197.90974 
L 164.565096 196.151016 
L 166.26166 195.470139 
L 166.940286 195.28298 
L 167.958224 194.714783 
L 169.315476 193.980541 
L 173.726543 191.06661 
L 174.744482 190.121982 
L 175.76242 189.381406 
L 179.155549 185.452399 
L 179.834175 184.44884 
L 180.5128 183.684845 
L 184.245242 177.592657 
L 184.923867 176.636511 
L 185.941806 174.124734 
L 186.620432 173.169932 
L 187.299057 172.312645 
L 187.63837 171.633112 
L 188.316996 169.843866 
L 188.995622 168.369433 
L 189.674247 167.490071 
L 190.692186 165.583538 
L 191.710125 164.290889 
L 192.049438 164.033281 
L 193.746002 162.019636 
L 196.460505 159.998697 
L 197.13913 159.648948 
L 198.496382 158.830629 
L 200.192946 158.137466 
L 201.210885 157.733586 
L 202.568136 157.295152 
L 203.586075 156.900102 
L 210.711645 154.712158 
L 211.729583 154.500812 
L 215.462025 153.575764 
L 216.479964 153.34311 
L 217.837215 153.088573 
L 218.855154 152.91581 
L 220.212405 152.659738 
L 221.569656 152.42574 
L 222.926908 152.192702 
L 228.355914 151.246155 
L 231.409729 150.465268 
L 238.195987 148.514201 
L 239.213925 148.078839 
L 239.892551 147.837355 
L 242.946367 146.40592 
L 243.964305 145.918921 
L 244.303618 145.820255 
L 246.000182 144.738376 
L 247.018121 144.219321 
L 248.714685 143.155486 
L 249.053998 143.039351 
L 250.750562 141.903149 
L 252.107814 141.143569 
L 253.125753 140.499932 
L 254.143691 140.020419 
L 255.840255 138.965799 
L 256.179568 138.87078 
L 258.215445 137.713078 
L 258.554758 137.648388 
L 259.572697 137.113399 
L 259.91201 137.113399 
L 260.590635 136.595879 
L 261.269261 136.322722 
L 262.626513 135.642613 
L 264.323077 134.997056 
L 267.376893 133.92612 
L 271.448647 132.961144 
L 274.841776 132.374135 
L 276.199027 132.147048 
L 280.270781 131.639701 
L 284.681849 131.201844 
L 285.360474 131.113543 
L 289.092916 130.76629 
L 290.78948 130.666664 
L 294.861234 130.28601 
L 303.683369 129.208163 
L 304.022682 129.082046 
L 304.701307 129.00795 
L 305.04062 128.844209 
L 305.719246 128.770113 
L 306.397872 128.659737 
L 307.076497 128.300007 
L 307.41581 128.300007 
L 307.755123 127.975213 
L 308.433749 127.756956 
L 309.112375 127.238284 
L 309.451687 127.238284 
L 309.791 126.302102 
L 310.130313 125.939685 
L 311.148252 125.490502 
L 311.487565 124.864909 
L 311.826877 123.138242 
L 312.844816 120.467522 
L 313.523442 119.076975 
L 313.862755 117.826749 
L 314.202067 117.826749 
L 314.54138 114.255552 
L 315.220006 111.149663 
L 315.559319 110.100034 
L 316.91657 101.161292 
L 317.255883 101.161292 
L 317.595196 97.745774 
L 317.934509 97.745774 
L 318.273822 96.69864 
L 318.613135 92.912834 
L 319.631073 88.54117 
L 319.970386 87.679276 
L 320.309699 87.679276 
L 320.649012 85.998487 
L 320.988325 85.998487 
L 321.327638 83.831083 
L 321.66695 83.004126 
L 322.006263 83.004126 
L 322.345576 81.865044 
L 322.684889 81.865044 
L 323.024202 80.944795 
L 323.702828 79.898237 
L 324.381453 79.131938 
L 324.720766 78.901012 
L 325.060079 78.901012 
L 325.399392 78.41862 
L 326.41733 77.69532 
L 326.756643 77.69532 
L 327.095956 77.383388 
L 327.435269 77.383388 
L 328.113895 76.971253 
L 329.131833 76.58772 
L 333.542901 75.758651 
L 334.560839 75.651538 
L 338.971906 74.941099 
L 340.329158 74.738967 
L 343.043661 74.361193 
L 344.400912 74.25312 
L 345.079538 74.035823 
L 347.454728 73.601229 
L 349.829918 72.816886 
L 351.187169 72.220087 
L 351.526482 72.09493 
L 352.544421 70.967366 
L 352.883734 70.454452 
L 353.562359 69.883568 
L 355.258924 66.726425 
L 355.937549 65.96531 
L 356.276862 65.96531 
L 356.616175 64.541745 
L 357.634114 62.533475 
L 358.312739 61.780038 
L 360.009304 58.240514 
L 360.687929 57.479399 
L 362.045181 54.725369 
L 362.723807 53.765961 
L 363.063119 53.441167 
L 364.081058 51.606043 
L 364.759684 50.662759 
L 365.777622 49.725233 
L 367.134874 48.277482 
L 368.152812 47.500242 
L 369.510064 46.061129 
L 370.528002 45.297134 
L 371.545941 44.322368 
L 371.885254 44.322368 
L 372.224567 43.887774 
L 373.581818 43.887774 
L 373.581818 43.887774 
" clip-path="url(#p7f4d0a6a7a)" style="fill: none; stroke: #1f77b4; stroke-width: 1.5; stroke-linecap: square"/>
   </g>
   <g id="line2d_18">
    <path d="M 69.218182 221.498182 
L 96.363211 221.387422 
L 121.13305 221.043624 
L 124.526178 220.670649 
L 127.579994 220.040065 
L 130.973123 219.125382 
L 133.009 218.360811 
L 135.723503 217.578964 
L 138.438005 216.482497 
L 140.473883 215.660915 
L 141.152508 215.329786 
L 143.867011 213.87762 
L 144.206324 213.87762 
L 144.88495 213.400603 
L 146.242201 212.491487 
L 146.581514 212.491487 
L 147.26014 211.920027 
L 148.617391 210.853313 
L 148.956704 210.853313 
L 149.296017 210.487248 
L 149.974643 210.073577 
L 150.992581 209.268119 
L 151.331894 209.268119 
L 152.01052 208.696659 
L 153.367771 207.667761 
L 153.707084 207.667761 
L 154.38571 207.177307 
L 155.742961 206.298521 
L 156.082274 206.298521 
L 156.421587 205.924777 
L 157.439526 205.214723 
L 158.118151 204.713519 
L 158.457464 204.713519 
L 159.13609 204.176227 
L 160.154029 203.387277 
L 160.493341 203.163454 
L 160.832654 203.163454 
L 161.850593 202.412704 
L 162.868531 201.70956 
L 163.207844 201.70956 
L 164.225783 201.044423 
L 167.618912 199.16131 
L 167.958224 199.16131 
L 169.994102 197.844475 
L 170.333414 197.844475 
L 172.029979 196.655291 
L 172.708604 196.655291 
L 173.047917 196.103027 
L 173.726543 195.675919 
L 174.405169 195.18201 
L 175.083794 195.18201 
L 175.423107 194.693475 
L 175.76242 194.590969 
L 176.780359 193.916619 
L 177.458984 193.916619 
L 177.798297 193.39142 
L 179.494862 192.522616 
L 179.834175 192.522616 
L 180.173487 192.096084 
L 181.870052 191.270086 
L 182.209365 191.270086 
L 182.548677 190.805355 
L 183.905929 190.210859 
L 184.584555 190.210859 
L 184.923867 189.67875 
L 186.281119 188.99557 
L 186.959745 188.99557 
L 187.299057 188.397619 
L 188.995622 187.403658 
L 189.334935 187.403658 
L 189.674247 186.933935 
L 191.031499 186.141914 
L 191.710125 186.141914 
L 192.049438 185.790822 
L 193.406689 185.158894 
L 194.085315 185.158894 
L 194.424628 184.88305 
L 196.121192 184.397203 
L 196.460505 184.397203 
L 196.799818 184.149001 
L 198.496382 183.79023 
L 198.835695 183.79023 
L 199.51432 183.518801 
L 200.532259 183.262536 
L 201.210885 183.262536 
L 201.88951 183.019324 
L 203.246762 182.784367 
L 203.586075 182.784367 
L 204.264701 182.511978 
L 205.621952 182.273182 
L 205.961265 182.273182 
L 206.639891 182.048014 
L 207.997142 181.831869 
L 208.675768 181.831869 
L 209.015081 181.603054 
L 209.693706 181.603054 
L 210.033019 181.360995 
L 211.050958 181.360995 
L 211.390271 181.101083 
L 212.068896 181.101083 
L 212.408209 180.821591 
L 213.426148 180.821591 
L 213.765461 180.526935 
L 214.444086 180.526935 
L 214.783399 180.192927 
L 215.801338 180.192927 
L 216.140651 179.888481 
L 218.176528 179.888481 
L 218.515841 179.296864 
L 219.194466 179.296864 
L 219.533779 178.77896 
L 220.551718 178.77896 
L 220.891031 178.241668 
L 221.230344 178.241668 
L 221.569656 177.821279 
L 221.908969 177.620874 
L 222.587595 177.620874 
L 222.926908 177.187048 
L 223.605534 176.676246 
L 224.623472 175.666161 
L 224.962785 175.666161 
L 226.659349 173.318316 
L 227.337975 173.318316 
L 227.677288 172.227031 
L 228.016601 171.976717 
L 229.034539 170.535877 
L 229.713165 170.535877 
L 230.052478 169.385661 
L 230.391791 168.956442 
L 231.409729 167.223632 
L 232.088355 167.223632 
L 232.427668 166.093956 
L 233.106294 165.096923 
L 233.784919 164.060539 
L 234.463545 164.060539 
L 234.802858 163.041239 
L 236.160109 161.20362 
L 236.838735 161.20362 
L 237.178048 160.266095 
L 238.535299 158.539812 
L 239.213925 158.539812 
L 239.553238 157.783303 
L 240.91049 156.251474 
L 241.589115 156.251474 
L 241.928428 155.540459 
L 243.28568 154.191759 
L 243.964305 154.191759 
L 244.303618 153.526622 
L 245.321557 152.534005 
L 245.66087 152.200189 
L 246.339495 152.200189 
L 246.678808 151.566918 
L 248.03606 150.24202 
L 248.714685 150.24202 
L 249.053998 149.643493 
L 250.41125 148.461412 
L 251.429188 148.461412 
L 251.768501 147.580899 
L 252.78644 146.673127 
L 253.465065 146.673127 
L 253.804378 146.100514 
L 255.16163 144.981972 
L 256.179568 144.981972 
L 256.518881 144.322402 
L 257.53682 143.40676 
L 258.554758 143.40676 
L 258.894071 142.579611 
L 259.91201 141.513473 
L 260.590635 141.513473 
L 260.929948 140.78691 
L 262.2872 139.283299 
L 262.965825 139.283299 
L 263.305138 138.54349 
L 264.66239 136.912227 
L 265.341016 136.912227 
L 265.680328 135.991786 
L 266.698267 134.541539 
L 267.03758 134.00655 
L 267.716206 134.00655 
L 268.055518 132.977461 
L 269.41277 130.833284 
L 270.091396 130.833284 
L 270.430708 129.714357 
L 271.78796 127.47996 
L 272.805898 127.47996 
L 273.145211 126.145464 
L 274.16315 124.52783 
L 274.841776 124.52783 
L 275.181088 123.473977 
L 276.53834 121.452846 
L 277.216966 121.452846 
L 277.556279 120.528181 
L 278.91353 119.0167 
L 279.592156 119.0167 
L 279.931469 118.240611 
L 281.28872 117.068705 
L 281.967346 117.068705 
L 282.306659 116.574603 
L 283.324597 115.895262 
L 283.66391 115.701384 
L 284.342536 115.701384 
L 284.681849 115.354131 
L 286.378413 114.774992 
L 286.717726 114.774992 
L 287.396351 114.400289 
L 288.41429 114.05937 
L 289.092916 114.05937 
L 289.771542 113.799075 
L 291.128793 113.556823 
L 291.468106 113.556823 
L 292.146732 113.369855 
L 292.486044 113.369855 
L 293.16467 113.203043 
L 294.182609 113.106488 
L 297.236424 112.792828 
L 303.004743 112.46669 
L 306.058559 112.362457 
L 306.737185 112.300646 
L 308.433749 112.300646 
L 308.773062 111.975085 
L 310.808939 111.975085 
L 311.148252 110.954825 
L 311.826877 109.894638 
L 312.16619 109.289393 
L 312.844816 109.289393 
L 313.184129 107.907675 
L 314.202067 105.428915 
L 314.54138 104.426123 
L 315.220006 104.426123 
L 315.559319 102.371207 
L 316.91657 97.973629 
L 317.934509 97.973629 
L 318.273822 94.482287 
L 319.29176 90.490317 
L 319.970386 90.490317 
L 320.309699 88.11291 
L 321.66695 82.909682 
L 322.345576 82.909682 
L 322.684889 80.656665 
L 324.04214 76.167714 
L 324.720766 76.167714 
L 325.060079 74.358121 
L 326.41733 71.110759 
L 327.095956 71.110759 
L 327.435269 69.765705 
L 328.453208 67.96475 
L 328.792521 67.456828 
L 329.471146 67.456828 
L 329.810459 66.60146 
L 330.828398 65.471976 
L 331.167711 65.132018 
L 331.846336 65.132018 
L 332.185649 64.56478 
L 333.542901 63.52878 
L 334.221526 63.52878 
L 334.560839 63.102056 
L 335.918091 62.287768 
L 336.596716 62.287768 
L 336.936029 61.951457 
L 338.293281 61.265397 
L 339.650532 61.265397 
L 339.989845 60.669942 
L 341.007784 60.374325 
L 341.686409 60.374325 
L 342.025722 59.995207 
L 344.061599 59.995207 
L 344.400912 59.313946 
L 346.776102 59.313946 
L 347.115415 58.758802 
L 349.151292 58.758802 
L 349.490605 57.9353 
L 351.526482 57.9353 
L 351.865795 56.934044 
L 353.562359 56.934044 
L 353.901672 55.230604 
L 356.276862 55.230604 
L 356.616175 53.048228 
L 358.312739 53.048228 
L 358.652052 50.455828 
L 361.027242 50.455828 
L 361.366555 47.788372 
L 373.581818 47.788372 
L 373.581818 47.788372 
" clip-path="url(#p7f4d0a6a7a)" style="fill: none; stroke: #ff7f0e; stroke-width: 1.5; stroke-linecap: square"/>
   </g>
   <g id="line2d_19">
    <path d="M 69.218182 221.498182 
L 111.971602 221.444625 
L 112.650228 221.328299 
L 116.721982 221.246908 
L 117.400608 221.18049 
L 126.222742 221.079328 
L 127.240681 221.03537 
L 130.63381 220.97759 
L 131.651748 220.921538 
L 142.50976 220.818649 
L 144.206324 220.795806 
L 159.13609 220.687157 
L 162.189906 220.660859 
L 192.38875 220.554514 
L 198.496382 220.533206 
L 230.391791 220.428013 
L 233.445607 220.398067 
L 244.642931 220.299785 
L 246.000182 220.269263 
L 251.768501 220.189217 
L 252.78644 220.146026 
L 258.894071 220.040833 
L 259.572697 219.983629 
L 263.644451 219.925465 
L 264.323077 219.867302 
L 268.394831 219.796085 
L 269.073457 219.716231 
L 273.145211 219.630041 
L 273.823837 219.531567 
L 277.895591 219.433284 
L 278.574217 219.334233 
L 282.645971 219.244781 
L 283.324597 219.162238 
L 287.396351 219.089294 
L 288.074977 219.028443 
L 301.647492 218.926513 
L 305.719246 218.908085 
L 332.524962 218.804044 
L 335.578778 218.778129 
L 373.581818 218.67236 
L 373.581818 218.67236 
" clip-path="url(#p7f4d0a6a7a)" style="fill: none; stroke: #2ca02c; stroke-width: 1.5; stroke-linecap: square"/>
   </g>
   <g id="line2d_20">
    <path d="M 69.218182 221.498182 
L 102.470842 221.391261 
L 108.917787 221.131157 
L 114.686105 220.316869 
L 118.75786 219.443074 
L 123.847552 217.848858 
L 125.88343 216.740105 
L 126.222742 216.620323 
L 127.240681 216.008551 
L 128.937245 215.175259 
L 129.276558 215.008256 
L 129.615871 214.195695 
L 130.973123 213.601967 
L 132.330374 212.849874 
L 132.669687 212.800732 
L 134.366251 211.712327 
L 135.38419 211.446273 
L 136.402128 210.888633 
L 137.080754 210.632369 
L 137.420067 210.55904 
L 139.455944 209.488872 
L 140.13457 209.242205 
L 141.491821 208.472643 
L 142.170447 208.342687 
L 143.867011 207.354868 
L 144.88495 207.121831 
L 146.242201 206.625042 
L 146.920827 206.558433 
L 148.617391 205.823231 
L 149.974643 205.580212 
L 151.331894 205.096476 
L 151.671207 205.050982 
L 153.028458 204.437291 
L 153.707084 204.204253 
L 154.38571 204.036097 
L 155.742961 203.502453 
L 156.7609 203.287075 
L 157.778839 202.890681 
L 158.457464 202.740953 
L 159.13609 202.613301 
L 160.832654 202.041264 
L 161.850593 201.838748 
L 162.868531 201.413176 
L 163.88647 201.232927 
L 165.243721 200.778369 
L 166.600973 200.546483 
L 167.618912 200.181186 
L 168.63685 199.974063 
L 169.994102 199.47689 
L 171.01204 199.28282 
L 172.708604 198.726332 
L 173.38723 198.588122 
L 175.083794 198.084807 
L 175.423107 198.067338 
L 177.119672 197.435795 
L 178.13761 197.220609 
L 179.834175 196.681398 
L 180.5128 196.527831 
L 181.870052 196.045439 
L 182.88799 195.852329 
L 183.905929 195.568422 
L 184.923867 195.499125 
L 186.281119 194.962601 
L 187.299057 194.881978 
L 188.656309 194.227784 
L 188.995622 194.023732 
L 189.674247 194.001465 
L 190.352873 193.474922 
L 191.370812 192.973527 
L 192.049438 192.868333 
L 193.067376 192.24466 
L 194.76394 191.656499 
L 196.121192 190.954123 
L 197.478443 190.599383 
L 198.496382 190.221033 
L 199.51432 190.018325 
L 201.210885 189.387549 
L 201.550198 189.367585 
L 203.586075 188.640638 
L 203.925388 188.617795 
L 205.282639 188.1331 
L 205.961265 187.993354 
L 206.300578 187.972047 
L 207.997142 187.264872 
L 209.015081 187.02953 
L 210.372332 186.431388 
L 211.050958 186.367081 
L 212.747522 185.475434 
L 213.426148 185.387133 
L 215.462025 184.377815 
L 216.479964 184.29009 
L 217.158589 184.059356 
L 218.176528 183.935735 
L 220.212405 182.516969 
L 220.551718 182.471283 
L 221.908969 181.058852 
L 222.248282 180.74404 
L 222.926908 180.601607 
L 224.623472 179.016413 
L 225.641411 178.686628 
L 226.659349 177.794789 
L 227.337975 177.600335 
L 227.677288 177.564439 
L 229.373852 176.410384 
L 230.052478 176.329569 
L 231.070417 175.660978 
L 231.749042 175.213714 
L 232.427668 175.134819 
L 234.124232 174.064075 
L 234.802858 173.960801 
L 236.838735 172.697522 
L 237.178048 172.660666 
L 238.874612 171.321755 
L 239.553238 171.156095 
L 240.91049 169.802211 
L 241.249802 169.452271 
L 241.928428 169.287378 
L 243.624992 167.759964 
L 244.303618 167.585858 
L 246.339495 165.524031 
L 247.018121 165.316908 
L 247.357434 165.142418 
L 248.375372 163.682381 
L 249.053998 163.424197 
L 251.089875 160.351516 
L 251.429188 160.23327 
L 253.125753 157.551801 
L 253.804378 157.312045 
L 255.500943 154.156054 
L 255.840255 153.911883 
L 256.179568 153.816672 
L 256.858194 152.623841 
L 257.876133 150.764531 
L 258.554758 150.423996 
L 258.894071 149.888624 
L 260.251323 146.728411 
L 260.929948 146.419741 
L 261.269261 145.795108 
L 262.626513 142.4629 
L 263.305138 142.066314 
L 263.983764 140.439849 
L 265.001703 137.43589 
L 265.680328 137.03508 
L 267.376893 132.476833 
L 268.055518 132.084086 
L 269.752083 128.049117 
L 270.430708 127.71914 
L 272.127273 123.665744 
L 272.805898 123.319642 
L 273.484524 121.682428 
L 273.823837 121.46993 
L 274.502463 120.031201 
L 275.181088 119.755164 
L 276.877653 116.188959 
L 277.556279 115.857062 
L 279.252843 112.932958 
L 279.931469 112.727562 
L 281.28872 110.77304 
L 281.628033 110.390851 
L 282.306659 110.205611 
L 284.003223 108.686643 
L 284.681849 108.576267 
L 285.360474 107.962383 
L 285.699787 107.903452 
L 286.378413 107.347156 
L 287.057039 107.269989 
L 288.753603 106.053932 
L 290.110854 105.828764 
L 291.128793 105.283602 
L 292.146732 105.028681 
L 293.843296 104.402704 
L 294.521922 104.290024 
L 294.861234 104.139721 
L 295.200547 104.139721 
L 295.53986 103.824909 
L 296.218486 103.656369 
L 296.557799 103.645236 
L 297.575737 103.145376 
L 298.593676 102.942667 
L 299.272302 102.870875 
L 300.968866 102.512296 
L 301.647492 102.400385 
L 303.344056 102.056011 
L 304.022682 101.999191 
L 305.719246 101.767689 
L 306.397872 101.683227 
L 307.755123 101.499715 
L 308.433749 101.474761 
L 309.451687 101.032296 
L 310.130313 100.835155 
L 310.808939 100.793884 
L 311.148252 100.600581 
L 311.487565 100.232213 
L 311.826877 100.232213 
L 312.16619 99.486838 
L 312.505503 99.093323 
L 312.844816 98.893302 
L 313.184129 98.82746 
L 313.862755 97.983035 
L 314.880693 96.384596 
L 315.220006 96.11643 
L 315.559319 96.042718 
L 317.255883 93.075615 
L 317.934509 92.792092 
L 318.613135 91.501171 
L 319.631073 89.368127 
L 320.309699 88.991121 
L 321.327638 86.683779 
L 322.345576 85.001071 
L 322.684889 84.812759 
L 323.363515 83.134082 
L 324.381453 80.608291 
L 325.060079 80.22495 
L 326.756643 76.26235 
L 327.435269 75.935445 
L 329.131833 72.488061 
L 329.471146 72.348123 
L 329.810459 72.348123 
L 330.489085 70.998079 
L 331.507023 69.477767 
L 332.185649 69.282545 
L 332.864275 68.238483 
L 333.882213 67.027416 
L 334.560839 66.896117 
L 336.257403 64.903011 
L 336.936029 64.734664 
L 338.293281 63.488469 
L 338.632593 63.293823 
L 339.311219 63.200723 
L 340.668471 62.195436 
L 341.007784 62.029584 
L 341.686409 61.952033 
L 342.704348 61.457931 
L 343.382974 61.171913 
L 344.061599 61.131218 
L 345.079538 60.766305 
L 346.436789 60.712172 
L 348.472666 59.75929 
L 349.151292 59.625495 
L 350.847856 58.98397 
L 351.526482 58.950569 
L 352.883734 58.445334 
L 353.562359 58.41942 
L 353.901672 58.284473 
L 354.240985 58.284473 
L 354.919611 57.973116 
L 355.598237 57.85295 
L 355.937549 57.836058 
L 357.973427 57.08646 
L 358.652052 56.951897 
L 360.009304 56.412685 
L 360.687929 56.381396 
L 362.723807 55.518926 
L 363.063119 55.498578 
L 364.081058 54.809063 
L 364.420371 54.809063 
L 364.759684 54.322065 
L 365.43831 54.251808 
L 366.456248 53.246713 
L 367.134874 52.542225 
L 368.152812 52.437416 
L 368.492125 51.279522 
L 369.510064 49.477799 
L 370.18869 49.222686 
L 370.867315 47.652465 
L 371.545941 45.794498 
L 371.885254 45.12725 
L 372.56388 44.67634 
L 372.903192 44.447141 
L 373.581818 43.461818 
L 373.581818 43.461818 
" clip-path="url(#p7f4d0a6a7a)" style="fill: none; stroke: #d62728; stroke-width: 1.5; stroke-linecap: square"/>
   </g>
   <g id="line2d_21">
    <path d="M 69.218182 221.498182 
L 104.167407 221.391645 
L 109.935725 221.18337 
L 121.13305 220.543572 
L 124.526178 220.103219 
L 129.276558 219.346902 
L 131.651748 218.85069 
L 138.777318 217.214819 
L 142.170447 216.735498 
L 145.563576 216.50726 
L 159.13609 215.647285 
L 161.51128 215.360307 
L 167.618912 214.751799 
L 182.209365 213.1524 
L 186.620432 212.513946 
L 187.63837 212.407985 
L 199.175008 210.623155 
L 205.621952 209.976638 
L 218.176528 208.926625 
L 219.873092 208.926625 
L 220.212405 208.73505 
L 221.230344 208.645406 
L 233.106294 207.777177 
L 233.445607 207.777177 
L 233.784919 207.634936 
L 234.802858 207.634936 
L 235.481484 207.519569 
L 236.838735 207.437987 
L 237.517361 207.350453 
L 239.553238 207.266184 
L 239.892551 207.104555 
L 241.928428 207.033914 
L 242.267741 206.852321 
L 244.982244 206.624466 
L 246.000182 206.624466 
L 246.339495 206.415615 
L 247.696747 206.378375 
L 248.03606 206.378375 
L 248.375372 206.18181 
L 249.732624 206.096388 
L 250.071937 205.962593 
L 250.750562 205.962593 
L 251.089875 205.825919 
L 251.768501 205.732627 
L 253.465065 205.594033 
L 254.143691 205.594033 
L 254.483004 205.346022 
L 256.179568 205.241021 
L 256.518881 205.03217 
L 260.251323 204.534614 
L 261.269261 204.534614 
L 261.608574 204.197151 
L 263.644451 204.197151 
L 263.983764 203.812082 
L 265.341016 203.706313 
L 266.019641 203.706313 
L 266.358954 203.442561 
L 268.394831 203.442561 
L 268.734144 203.057301 
L 271.109334 203.057301 
L 271.448647 202.662826 
L 272.466586 202.662826 
L 272.805898 202.359723 
L 274.841776 202.359723 
L 275.181088 201.913804 
L 277.216966 201.913804 
L 277.556279 201.467692 
L 280.270781 201.467692 
L 280.610094 200.894312 
L 281.28872 200.831157 
L 282.985284 200.831157 
L 283.324597 200.405585 
L 284.003223 200.346654 
L 285.699787 200.346654 
L 286.0391 199.943157 
L 287.057039 199.943157 
L 287.396351 199.72586 
L 290.78948 199.72586 
L 291.128793 199.181466 
L 292.146732 199.181466 
L 292.486044 198.971847 
L 293.843296 198.869341 
L 295.200547 198.839204 
L 297.91505 198.839204 
L 298.593676 198.500973 
L 303.004743 198.500973 
L 303.344056 198.24682 
L 308.773062 198.128957 
L 312.505503 198.034322 
L 315.220006 197.776521 
L 316.577258 197.776521 
L 316.91657 197.117144 
L 319.29176 197.117144 
L 319.631073 195.917403 
L 320.309699 195.562855 
L 324.720766 195.562855 
L 325.060079 193.129397 
L 329.471146 193.129397 
L 329.810459 191.482777 
L 335.239465 191.482777 
L 335.578778 190.726268 
L 336.257403 190.582875 
L 343.043661 190.48344 
L 343.722286 190.383814 
L 358.991365 190.383814 
L 359.330678 190.25597 
L 362.384494 190.25597 
L 362.723807 190.06785 
L 367.8135 189.991259 
L 368.152812 188.933183 
L 373.581818 188.933183 
L 373.581818 188.933183 
" clip-path="url(#p7f4d0a6a7a)" style="fill: none; stroke: #9467bd; stroke-width: 1.5; stroke-linecap: square"/>
   </g>
   <g id="line2d_22">
    <path d="M 69.218182 221.498182 
L 100.434965 221.398555 
L 109.596412 220.930944 
L 113.668167 220.4689 
L 116.721982 220.085367 
L 118.75786 219.64463 
L 122.490301 218.233543 
L 123.50824 217.743857 
L 124.865491 217.0983 
L 125.88343 216.61706 
L 128.937245 215.572998 
L 132.330374 213.958818 
L 134.026938 213.433236 
L 137.080754 212.388981 
L 140.13457 211.579684 
L 143.188386 210.428125 
L 143.867011 210.048815 
L 144.88495 209.641095 
L 146.242201 209.145266 
L 147.599453 208.906277 
L 148.278078 208.819512 
L 148.956704 208.485504 
L 149.296017 208.325987 
L 149.63533 208.325987 
L 150.313956 208.038049 
L 154.725023 206.73657 
L 156.7609 206.014422 
L 157.439526 205.820544 
L 158.457464 205.358116 
L 159.475403 205.093789 
L 160.832654 204.524248 
L 161.850593 204.014982 
L 163.207844 203.604958 
L 164.904409 202.899703 
L 165.243721 202.899703 
L 165.583034 202.64555 
L 167.279599 202.383718 
L 168.297537 202.192336 
L 169.654789 201.903246 
L 171.01204 201.632776 
L 172.029979 201.620683 
L 172.369292 201.450992 
L 172.708604 201.450992 
L 173.047917 201.302032 
L 173.38723 201.302032 
L 174.065856 201.019853 
L 175.423107 200.718094 
L 175.76242 200.718094 
L 176.441046 200.428812 
L 177.119672 200.390421 
L 177.458984 200.186369 
L 177.798297 200.186369 
L 179.494862 199.606654 
L 183.905929 198.720573 
L 185.941806 198.112449 
L 186.281119 197.892272 
L 187.63837 197.729491 
L 187.977683 197.522752 
L 188.656309 197.396443 
L 189.334935 196.938046 
L 190.01356 196.581003 
L 190.692186 196.166757 
L 191.031499 196.080568 
L 191.710125 195.75443 
L 193.067376 194.999457 
L 194.424628 194.24314 
L 197.13913 192.905765 
L 197.478443 192.49267 
L 198.496382 191.954803 
L 199.175008 191.603518 
L 200.871572 190.825511 
L 201.550198 190.59612 
L 206.639891 188.527767 
L 209.015081 187.999881 
L 210.372332 187.361811 
L 211.390271 187.038744 
L 212.747522 186.574973 
L 213.426148 186.31602 
L 215.801338 185.414775 
L 217.837215 184.904933 
L 218.176528 184.807994 
L 218.855154 184.444617 
L 220.212405 183.916539 
L 220.891031 183.739169 
L 221.569656 183.303231 
L 223.266221 182.643278 
L 223.605534 182.643278 
L 223.944846 182.179698 
L 224.284159 182.013078 
L 224.623472 182.013078 
L 224.962785 181.780616 
L 225.641411 181.701337 
L 225.980724 181.502468 
L 226.320036 180.980341 
L 226.998662 180.578956 
L 227.337975 180.578956 
L 228.355914 179.850089 
L 230.052478 179.231791 
L 230.391791 178.860735 
L 230.731104 178.692963 
L 231.070417 178.692963 
L 231.409729 178.514441 
L 231.749042 178.122462 
L 233.445607 177.288018 
L 234.124232 176.936734 
L 235.142171 176.596008 
L 236.160109 176.109393 
L 237.856674 175.537932 
L 238.535299 175.228687 
L 240.571177 174.60367 
L 241.249802 174.070217 
L 243.28568 173.287986 
L 243.624992 172.9081 
L 245.321557 172.199773 
L 246.000182 171.66037 
L 246.339495 171.66037 
L 246.678808 171.525423 
L 247.018121 171.191799 
L 247.696747 170.940909 
L 248.375372 170.260992 
L 252.78644 167.892416 
L 253.465065 167.892416 
L 253.804378 167.441889 
L 254.822317 166.718013 
L 255.16163 166.476145 
L 255.840255 166.476145 
L 256.179568 165.7444 
L 257.197507 164.954682 
L 257.53682 164.465188 
L 258.215445 164.465188 
L 258.554758 163.800819 
L 258.894071 163.800819 
L 259.233384 163.260456 
L 259.572697 163.108041 
L 259.91201 162.771154 
L 260.929948 162.771154 
L 261.608574 161.570261 
L 261.947887 161.570261 
L 262.2872 160.794173 
L 262.965825 160.794173 
L 263.305138 160.10389 
L 263.983764 159.375599 
L 264.323077 159.375599 
L 264.66239 158.760372 
L 265.341016 158.760372 
L 265.680328 158.211179 
L 266.019641 157.888496 
L 266.358954 157.888496 
L 266.698267 157.405145 
L 267.03758 157.405145 
L 267.376893 157.115671 
L 267.716206 157.115671 
L 268.055518 156.470882 
L 268.394831 156.470882 
L 269.073457 155.750846 
L 269.41277 155.750846 
L 269.752083 155.501492 
L 270.091396 155.501492 
L 270.770021 154.790477 
L 271.109334 154.524999 
L 271.448647 154.524999 
L 271.78796 154.143961 
L 272.466586 154.143961 
L 272.805898 153.613772 
L 273.145211 153.613772 
L 273.484524 153.358659 
L 273.823837 153.358659 
L 274.502463 152.843442 
L 274.841776 152.843442 
L 275.181088 152.437642 
L 275.859714 152.099986 
L 276.199027 152.099986 
L 276.53834 151.813968 
L 277.556279 151.796884 
L 277.895591 151.383597 
L 278.234904 151.242508 
L 278.574217 151.242508 
L 278.91353 150.996609 
L 279.592156 150.996609 
L 279.931469 150.795244 
L 280.949407 150.659722 
L 281.967346 150.659722 
L 282.645971 150.287706 
L 283.66391 150.116287 
L 284.342536 150.055244 
L 284.681849 150.055244 
L 285.021161 149.858103 
L 285.699787 149.784583 
L 288.753603 149.440593 
L 289.771542 149.345381 
L 297.236424 148.993137 
L 301.986804 148.889672 
L 303.683369 148.819799 
L 308.094436 148.731882 
L 309.451687 148.668728 
L 312.16619 148.668728 
L 312.505503 148.31322 
L 313.184129 148.31322 
L 313.523442 148.085558 
L 315.220006 148.085558 
L 315.559319 147.524655 
L 316.91657 147.111368 
L 317.934509 147.111368 
L 318.273822 146.414558 
L 318.613135 146.414558 
L 318.952448 146.274621 
L 325.399392 146.274621 
L 325.738705 143.800275 
L 327.095956 143.800275 
L 327.435269 143.091564 
L 327.774582 143.091564 
L 328.453208 142.562526 
L 329.810459 142.562526 
L 330.149772 142.270557 
L 330.489085 142.270557 
L 330.828398 142.085125 
L 332.185649 142.085125 
L 332.524962 141.890288 
L 333.542901 141.890288 
L 333.882213 141.503491 
L 335.578778 141.412887 
L 335.918091 141.201924 
L 337.953968 141.107481 
L 338.293281 140.756388 
L 342.365035 140.651003 
L 344.400912 140.632191 
L 346.436789 140.557135 
L 347.115415 140.438889 
L 349.151292 140.38706 
L 349.490605 140.265359 
L 351.187169 140.161893 
L 368.492125 139.705607 
L 369.849377 139.629784 
L 370.867315 139.46374 
L 373.581818 139.394059 
L 373.581818 139.394059 
" clip-path="url(#p7f4d0a6a7a)" style="fill: none; stroke: #8c564b; stroke-width: 1.5; stroke-linecap: square"/>
   </g>
   <g id="patch_3">
    <path d="M 54 230.4 
L 54 34.56 
" style="fill: none; stroke: #000000; stroke-width: 0.8; stroke-linejoin: miter; stroke-linecap: square"/>
   </g>
   <g id="patch_4">
    <path d="M 388.8 230.4 
L 388.8 34.56 
" style="fill: none; stroke: #000000; stroke-width: 0.8; stroke-linejoin: miter; stroke-linecap: square"/>
   </g>
   <g id="patch_5">
    <path d="M 54 230.4 
L 388.8 230.4 
" style="fill: none; stroke: #000000; stroke-width: 0.8; stroke-linejoin: miter; stroke-linecap: square"/>
   </g>
   <g id="patch_6">
    <path d="M 54 34.56 
L 388.8 34.56 
" style="fill: none; stroke: #000000; stroke-width: 0.8; stroke-linejoin: miter; stroke-linecap: square"/>
   </g>
   <g id="text_18">
    <!-- Centroamérica -->
    <g transform="translate(177.038438 28.56)scale(0.12 -0.12)">
     <defs>
      <path id="DejaVuSans-43" d="M 4122 4306 
L 4122 3641 
Q 3803 3938 3442 4084 
Q 3081 4231 2675 4231 
Q 1875 4231 1450 3742 
Q 1025 3253 1025 2328 
Q 1025 1406 1450 917 
Q 1875 428 2675 428 
Q 3081 428 3442 575 
Q 3803 722 4122 1019 
L 4122 359 
Q 3791 134 3420 21 
Q 3050 -91 2638 -91 
Q 1578 -91 968 557 
Q 359 1206 359 2328 
Q 359 3453 968 4101 
Q 1578 4750 2638 4750 
Q 3056 4750 3426 4639 
Q 3797 4528 4122 4306 
z
" transform="scale(0.015625)"/>
      <path id="DejaVuSans-6e" d="M 3513 2113 
L 3513 0 
L 2938 0 
L 2938 2094 
Q 2938 2591 2744 2837 
Q 2550 3084 2163 3084 
Q 1697 3084 1428 2787 
Q 1159 2491 1159 1978 
L 1159 0 
L 581 0 
L 581 3500 
L 1159 3500 
L 1159 2956 
Q 1366 3272 1645 3428 
Q 1925 3584 2291 3584 
Q 2894 3584 3203 3211 
Q 3513 2838 3513 2113 
z
" transform="scale(0.015625)"/>
      <path id="DejaVuSans-72" d="M 2631 2963 
Q 2534 3019 2420 3045 
Q 2306 3072 2169 3072 
Q 1681 3072 1420 2755 
Q 1159 2438 1159 1844 
L 1159 0 
L 581 0 
L 581 3500 
L 1159 3500 
L 1159 2956 
Q 1341 3275 1631 3429 
Q 1922 3584 2338 3584 
Q 2397 3584 2469 3576 
Q 2541 3569 2628 3553 
L 2631 2963 
z
" transform="scale(0.015625)"/>
      <path id="DejaVuSans-6f" d="M 1959 3097 
Q 1497 3097 1228 2736 
Q 959 2375 959 1747 
Q 959 1119 1226 758 
Q 1494 397 1959 397 
Q 2419 397 2687 759 
Q 2956 1122 2956 1747 
Q 2956 2369 2687 2733 
Q 2419 3097 1959 3097 
z
M 1959 3584 
Q 2709 3584 3137 3096 
Q 3566 2609 3566 1747 
Q 3566 888 3137 398 
Q 2709 -91 1959 -91 
Q 1206 -91 779 398 
Q 353 888 353 1747 
Q 353 2609 779 3096 
Q 1206 3584 1959 3584 
z
" transform="scale(0.015625)"/>
      <path id="DejaVuSans-6d" d="M 3328 2828 
Q 3544 3216 3844 3400 
Q 4144 3584 4550 3584 
Q 5097 3584 5394 3201 
Q 5691 2819 5691 2113 
L 5691 0 
L 5113 0 
L 5113 2094 
Q 5113 2597 4934 2840 
Q 4756 3084 4391 3084 
Q 3944 3084 3684 2787 
Q 3425 2491 3425 1978 
L 3425 0 
L 2847 0 
L 2847 2094 
Q 2847 2600 2669 2842 
Q 2491 3084 2119 3084 
Q 1678 3084 1418 2786 
Q 1159 2488 1159 1978 
L 1159 0 
L 581 0 
L 581 3500 
L 1159 3500 
L 1159 2956 
Q 1356 3278 1631 3431 
Q 1906 3584 2284 3584 
Q 2666 3584 2933 3390 
Q 3200 3197 3328 2828 
z
" transform="scale(0.015625)"/>
      <path id="DejaVuSans-e9" d="M 3597 1894 
L 3597 1613 
L 953 1613 
Q 991 1019 1311 708 
Q 1631 397 2203 397 
Q 2534 397 2845 478 
Q 3156 559 3463 722 
L 3463 178 
Q 3153 47 2828 -22 
Q 2503 -91 2169 -91 
Q 1331 -91 842 396 
Q 353 884 353 1716 
Q 353 2575 817 3079 
Q 1281 3584 2069 3584 
Q 2775 3584 3186 3129 
Q 3597 2675 3597 1894 
z
M 3022 2063 
Q 3016 2534 2758 2815 
Q 2500 3097 2075 3097 
Q 1594 3097 1305 2825 
Q 1016 2553 972 2059 
L 3022 2063 
z
M 2469 5119 
L 3091 5119 
L 2072 3944 
L 1594 3944 
L 2469 5119 
z
" transform="scale(0.015625)"/>
      <path id="DejaVuSans-69" d="M 603 3500 
L 1178 3500 
L 1178 0 
L 603 0 
L 603 3500 
z
M 603 4863 
L 1178 4863 
L 1178 4134 
L 603 4134 
L 603 4863 
z
" transform="scale(0.015625)"/>
      <path id="DejaVuSans-63" d="M 3122 3366 
L 3122 2828 
Q 2878 2963 2633 3030 
Q 2388 3097 2138 3097 
Q 1578 3097 1268 2742 
Q 959 2388 959 1747 
Q 959 1106 1268 751 
Q 1578 397 2138 397 
Q 2388 397 2633 464 
Q 2878 531 3122 666 
L 3122 134 
Q 2881 22 2623 -34 
Q 2366 -91 2075 -91 
Q 1284 -91 818 406 
Q 353 903 353 1747 
Q 353 2603 823 3093 
Q 1294 3584 2113 3584 
Q 2378 3584 2631 3529 
Q 2884 3475 3122 3366 
z
" transform="scale(0.015625)"/>
     </defs>
     <use xlink:href="#DejaVuSans-43"/>
     <use xlink:href="#DejaVuSans-65" x="69.824219"/>
     <use xlink:href="#DejaVuSans-6e" x="131.347656"/>
     <use xlink:href="#DejaVuSans-74" x="194.726562"/>
     <use xlink:href="#DejaVuSans-72" x="233.935547"/>
     <use xlink:href="#DejaVuSans-6f" x="272.798828"/>
     <use xlink:href="#DejaVuSans-61" x="333.980469"/>
     <use xlink:href="#DejaVuSans-6d" x="395.259766"/>
     <use xlink:href="#DejaVuSans-e9" x="492.671875"/>
     <use xlink:href="#DejaVuSans-72" x="554.195312"/>
     <use xlink:href="#DejaVuSans-69" x="595.308594"/>
     <use xlink:href="#DejaVuSans-63" x="623.091797"/>
     <use xlink:href="#DejaVuSans-61" x="678.072266"/>
    </g>
   </g>
   <g id="legend_1">
    <g id="patch_7">
     <path d="M 61 130.62875 
L 149.154687 130.62875 
Q 151.154687 130.62875 151.154687 128.62875 
L 151.154687 41.56 
Q 151.154687 39.56 149.154687 39.56 
L 61 39.56 
Q 59 39.56 59 41.56 
L 59 128.62875 
Q 59 130.62875 61 130.62875 
z
" style="fill: #ffffff; opacity: 0.8; stroke: #cccccc; stroke-linejoin: miter"/>
    </g>
    <g id="line2d_23">
     <path d="M 63 47.658437 
L 73 47.658437 
L 83 47.658437 
" style="fill: none; stroke: #1f77b4; stroke-width: 1.5; stroke-linecap: square"/>
    </g>
    <g id="text_19">
     <!-- Panamá -->
     <g transform="translate(91 51.158437)scale(0.1 -0.1)">
      <defs>
       <path id="DejaVuSans-50" d="M 1259 4147 
L 1259 2394 
L 2053 2394 
Q 2494 2394 2734 2622 
Q 2975 2850 2975 3272 
Q 2975 3691 2734 3919 
Q 2494 4147 2053 4147 
L 1259 4147 
z
M 628 4666 
L 2053 4666 
Q 2838 4666 3239 4311 
Q 3641 3956 3641 3272 
Q 3641 2581 3239 2228 
Q 2838 1875 2053 1875 
L 1259 1875 
L 1259 0 
L 628 0 
L 628 4666 
z
" transform="scale(0.015625)"/>
       <path id="DejaVuSans-e1" d="M 2194 1759 
Q 1497 1759 1228 1600 
Q 959 1441 959 1056 
Q 959 750 1161 570 
Q 1363 391 1709 391 
Q 2188 391 2477 730 
Q 2766 1069 2766 1631 
L 2766 1759 
L 2194 1759 
z
M 3341 1997 
L 3341 0 
L 2766 0 
L 2766 531 
Q 2569 213 2275 61 
Q 1981 -91 1556 -91 
Q 1019 -91 701 211 
Q 384 513 384 1019 
Q 384 1609 779 1909 
Q 1175 2209 1959 2209 
L 2766 2209 
L 2766 2266 
Q 2766 2663 2505 2880 
Q 2244 3097 1772 3097 
Q 1472 3097 1187 3025 
Q 903 2953 641 2809 
L 641 3341 
Q 956 3463 1253 3523 
Q 1550 3584 1831 3584 
Q 2591 3584 2966 3190 
Q 3341 2797 3341 1997 
z
M 2291 5119 
L 2913 5119 
L 1894 3944 
L 1416 3944 
L 2291 5119 
z
" transform="scale(0.015625)"/>
      </defs>
      <use xlink:href="#DejaVuSans-50"/>
      <use xlink:href="#DejaVuSans-61" x="55.802734"/>
      <use xlink:href="#DejaVuSans-6e" x="117.082031"/>
      <use xlink:href="#DejaVuSans-61" x="180.460938"/>
      <use xlink:href="#DejaVuSans-6d" x="241.740234"/>
      <use xlink:href="#DejaVuSans-e1" x="339.152344"/>
     </g>
    </g>
    <g id="line2d_24">
     <path d="M 63 62.336562 
L 73 62.336562 
L 83 62.336562 
" style="fill: none; stroke: #ff7f0e; stroke-width: 1.5; stroke-linecap: square"/>
    </g>
    <g id="text_20">
     <!-- Costa Rica -->
     <g transform="translate(91 65.836562)scale(0.1 -0.1)">
      <defs>
       <path id="DejaVuSans-73" d="M 2834 3397 
L 2834 2853 
Q 2591 2978 2328 3040 
Q 2066 3103 1784 3103 
Q 1356 3103 1142 2972 
Q 928 2841 928 2578 
Q 928 2378 1081 2264 
Q 1234 2150 1697 2047 
L 1894 2003 
Q 2506 1872 2764 1633 
Q 3022 1394 3022 966 
Q 3022 478 2636 193 
Q 2250 -91 1575 -91 
Q 1294 -91 989 -36 
Q 684 19 347 128 
L 347 722 
Q 666 556 975 473 
Q 1284 391 1588 391 
Q 1994 391 2212 530 
Q 2431 669 2431 922 
Q 2431 1156 2273 1281 
Q 2116 1406 1581 1522 
L 1381 1569 
Q 847 1681 609 1914 
Q 372 2147 372 2553 
Q 372 3047 722 3315 
Q 1072 3584 1716 3584 
Q 2034 3584 2315 3537 
Q 2597 3491 2834 3397 
z
" transform="scale(0.015625)"/>
       <path id="DejaVuSans-20" transform="scale(0.015625)"/>
       <path id="DejaVuSans-52" d="M 2841 2188 
Q 3044 2119 3236 1894 
Q 3428 1669 3622 1275 
L 4263 0 
L 3584 0 
L 2988 1197 
Q 2756 1666 2539 1819 
Q 2322 1972 1947 1972 
L 1259 1972 
L 1259 0 
L 628 0 
L 628 4666 
L 2053 4666 
Q 2853 4666 3247 4331 
Q 3641 3997 3641 3322 
Q 3641 2881 3436 2590 
Q 3231 2300 2841 2188 
z
M 1259 4147 
L 1259 2491 
L 2053 2491 
Q 2509 2491 2742 2702 
Q 2975 2913 2975 3322 
Q 2975 3731 2742 3939 
Q 2509 4147 2053 4147 
L 1259 4147 
z
" transform="scale(0.015625)"/>
      </defs>
      <use xlink:href="#DejaVuSans-43"/>
      <use xlink:href="#DejaVuSans-6f" x="69.824219"/>
      <use xlink:href="#DejaVuSans-73" x="131.005859"/>
      <use xlink:href="#DejaVuSans-74" x="183.105469"/>
      <use xlink:href="#DejaVuSans-61" x="222.314453"/>
      <use xlink:href="#DejaVuSans-20" x="283.59375"/>
      <use xlink:href="#DejaVuSans-52" x="315.380859"/>
      <use xlink:href="#DejaVuSans-69" x="384.863281"/>
      <use xlink:href="#DejaVuSans-63" x="412.646484"/>
      <use xlink:href="#DejaVuSans-61" x="467.626953"/>
     </g>
    </g>
    <g id="line2d_25">
     <path d="M 63 77.014687 
L 73 77.014687 
L 83 77.014687 
" style="fill: none; stroke: #2ca02c; stroke-width: 1.5; stroke-linecap: square"/>
    </g>
    <g id="text_21">
     <!-- Nicaragua -->
     <g transform="translate(91 80.514687)scale(0.1 -0.1)">
      <defs>
       <path id="DejaVuSans-4e" d="M 628 4666 
L 1478 4666 
L 3547 763 
L 3547 4666 
L 4159 4666 
L 4159 0 
L 3309 0 
L 1241 3903 
L 1241 0 
L 628 0 
L 628 4666 
z
" transform="scale(0.015625)"/>
       <path id="DejaVuSans-67" d="M 2906 1791 
Q 2906 2416 2648 2759 
Q 2391 3103 1925 3103 
Q 1463 3103 1205 2759 
Q 947 2416 947 1791 
Q 947 1169 1205 825 
Q 1463 481 1925 481 
Q 2391 481 2648 825 
Q 2906 1169 2906 1791 
z
M 3481 434 
Q 3481 -459 3084 -895 
Q 2688 -1331 1869 -1331 
Q 1566 -1331 1297 -1286 
Q 1028 -1241 775 -1147 
L 775 -588 
Q 1028 -725 1275 -790 
Q 1522 -856 1778 -856 
Q 2344 -856 2625 -561 
Q 2906 -266 2906 331 
L 2906 616 
Q 2728 306 2450 153 
Q 2172 0 1784 0 
Q 1141 0 747 490 
Q 353 981 353 1791 
Q 353 2603 747 3093 
Q 1141 3584 1784 3584 
Q 2172 3584 2450 3431 
Q 2728 3278 2906 2969 
L 2906 3500 
L 3481 3500 
L 3481 434 
z
" transform="scale(0.015625)"/>
       <path id="DejaVuSans-75" d="M 544 1381 
L 544 3500 
L 1119 3500 
L 1119 1403 
Q 1119 906 1312 657 
Q 1506 409 1894 409 
Q 2359 409 2629 706 
Q 2900 1003 2900 1516 
L 2900 3500 
L 3475 3500 
L 3475 0 
L 2900 0 
L 2900 538 
Q 2691 219 2414 64 
Q 2138 -91 1772 -91 
Q 1169 -91 856 284 
Q 544 659 544 1381 
z
M 1991 3584 
L 1991 3584 
z
" transform="scale(0.015625)"/>
      </defs>
      <use xlink:href="#DejaVuSans-4e"/>
      <use xlink:href="#DejaVuSans-69" x="74.804688"/>
      <use xlink:href="#DejaVuSans-63" x="102.587891"/>
      <use xlink:href="#DejaVuSans-61" x="157.568359"/>
      <use xlink:href="#DejaVuSans-72" x="218.847656"/>
      <use xlink:href="#DejaVuSans-61" x="259.960938"/>
      <use xlink:href="#DejaVuSans-67" x="321.240234"/>
      <use xlink:href="#DejaVuSans-75" x="384.716797"/>
      <use xlink:href="#DejaVuSans-61" x="448.095703"/>
     </g>
    </g>
    <g id="line2d_26">
     <path d="M 63 91.692813 
L 73 91.692813 
L 83 91.692813 
" style="fill: none; stroke: #d62728; stroke-width: 1.5; stroke-linecap: square"/>
    </g>
    <g id="text_22">
     <!-- Guatemala -->
     <g transform="translate(91 95.192813)scale(0.1 -0.1)">
      <defs>
       <path id="DejaVuSans-47" d="M 3809 666 
L 3809 1919 
L 2778 1919 
L 2778 2438 
L 4434 2438 
L 4434 434 
Q 4069 175 3628 42 
Q 3188 -91 2688 -91 
Q 1594 -91 976 548 
Q 359 1188 359 2328 
Q 359 3472 976 4111 
Q 1594 4750 2688 4750 
Q 3144 4750 3555 4637 
Q 3966 4525 4313 4306 
L 4313 3634 
Q 3963 3931 3569 4081 
Q 3175 4231 2741 4231 
Q 1884 4231 1454 3753 
Q 1025 3275 1025 2328 
Q 1025 1384 1454 906 
Q 1884 428 2741 428 
Q 3075 428 3337 486 
Q 3600 544 3809 666 
z
" transform="scale(0.015625)"/>
       <path id="DejaVuSans-6c" d="M 603 4863 
L 1178 4863 
L 1178 0 
L 603 0 
L 603 4863 
z
" transform="scale(0.015625)"/>
      </defs>
      <use xlink:href="#DejaVuSans-47"/>
      <use xlink:href="#DejaVuSans-75" x="77.490234"/>
      <use xlink:href="#DejaVuSans-61" x="140.869141"/>
      <use xlink:href="#DejaVuSans-74" x="202.148438"/>
      <use xlink:href="#DejaVuSans-65" x="241.357422"/>
      <use xlink:href="#DejaVuSans-6d" x="302.880859"/>
      <use xlink:href="#DejaVuSans-61" x="400.292969"/>
      <use xlink:href="#DejaVuSans-6c" x="461.572266"/>
      <use xlink:href="#DejaVuSans-61" x="489.355469"/>
     </g>
    </g>
    <g id="line2d_27">
     <path d="M 63 106.370937 
L 73 106.370937 
L 83 106.370937 
" style="fill: none; stroke: #9467bd; stroke-width: 1.5; stroke-linecap: square"/>
    </g>
    <g id="text_23">
     <!-- El Salvador -->
     <g transform="translate(91 109.870937)scale(0.1 -0.1)">
      <defs>
       <path id="DejaVuSans-45" d="M 628 4666 
L 3578 4666 
L 3578 4134 
L 1259 4134 
L 1259 2753 
L 3481 2753 
L 3481 2222 
L 1259 2222 
L 1259 531 
L 3634 531 
L 3634 0 
L 628 0 
L 628 4666 
z
" transform="scale(0.015625)"/>
       <path id="DejaVuSans-53" d="M 3425 4513 
L 3425 3897 
Q 3066 4069 2747 4153 
Q 2428 4238 2131 4238 
Q 1616 4238 1336 4038 
Q 1056 3838 1056 3469 
Q 1056 3159 1242 3001 
Q 1428 2844 1947 2747 
L 2328 2669 
Q 3034 2534 3370 2195 
Q 3706 1856 3706 1288 
Q 3706 609 3251 259 
Q 2797 -91 1919 -91 
Q 1588 -91 1214 -16 
Q 841 59 441 206 
L 441 856 
Q 825 641 1194 531 
Q 1563 422 1919 422 
Q 2459 422 2753 634 
Q 3047 847 3047 1241 
Q 3047 1584 2836 1778 
Q 2625 1972 2144 2069 
L 1759 2144 
Q 1053 2284 737 2584 
Q 422 2884 422 3419 
Q 422 4038 858 4394 
Q 1294 4750 2059 4750 
Q 2388 4750 2728 4690 
Q 3069 4631 3425 4513 
z
" transform="scale(0.015625)"/>
       <path id="DejaVuSans-76" d="M 191 3500 
L 800 3500 
L 1894 563 
L 2988 3500 
L 3597 3500 
L 2284 0 
L 1503 0 
L 191 3500 
z
" transform="scale(0.015625)"/>
       <path id="DejaVuSans-64" d="M 2906 2969 
L 2906 4863 
L 3481 4863 
L 3481 0 
L 2906 0 
L 2906 525 
Q 2725 213 2448 61 
Q 2172 -91 1784 -91 
Q 1150 -91 751 415 
Q 353 922 353 1747 
Q 353 2572 751 3078 
Q 1150 3584 1784 3584 
Q 2172 3584 2448 3432 
Q 2725 3281 2906 2969 
z
M 947 1747 
Q 947 1113 1208 752 
Q 1469 391 1925 391 
Q 2381 391 2643 752 
Q 2906 1113 2906 1747 
Q 2906 2381 2643 2742 
Q 2381 3103 1925 3103 
Q 1469 3103 1208 2742 
Q 947 2381 947 1747 
z
" transform="scale(0.015625)"/>
      </defs>
      <use xlink:href="#DejaVuSans-45"/>
      <use xlink:href="#DejaVuSans-6c" x="63.183594"/>
      <use xlink:href="#DejaVuSans-20" x="90.966797"/>
      <use xlink:href="#DejaVuSans-53" x="122.753906"/>
      <use xlink:href="#DejaVuSans-61" x="186.230469"/>
      <use xlink:href="#DejaVuSans-6c" x="247.509766"/>
      <use xlink:href="#DejaVuSans-76" x="275.292969"/>
      <use xlink:href="#DejaVuSans-61" x="334.472656"/>
      <use xlink:href="#DejaVuSans-64" x="395.751953"/>
      <use xlink:href="#DejaVuSans-6f" x="459.228516"/>
      <use xlink:href="#DejaVuSans-72" x="520.410156"/>
     </g>
    </g>
    <g id="line2d_28">
     <path d="M 63 121.049062 
L 73 121.049062 
L 83 121.049062 
" style="fill: none; stroke: #8c564b; stroke-width: 1.5; stroke-linecap: square"/>
    </g>
    <g id="text_24">
     <!-- Honduras -->
     <g transform="translate(91 124.549062)scale(0.1 -0.1)">
      <defs>
       <path id="DejaVuSans-48" d="M 628 4666 
L 1259 4666 
L 1259 2753 
L 3553 2753 
L 3553 4666 
L 4184 4666 
L 4184 0 
L 3553 0 
L 3553 2222 
L 1259 2222 
L 1259 0 
L 628 0 
L 628 4666 
z
" transform="scale(0.015625)"/>
      </defs>
      <use xlink:href="#DejaVuSans-48"/>
      <use xlink:href="#DejaVuSans-6f" x="75.195312"/>
      <use xlink:href="#DejaVuSans-6e" x="136.376953"/>
      <use xlink:href="#DejaVuSans-64" x="199.755859"/>
      <use xlink:href="#DejaVuSans-75" x="263.232422"/>
      <use xlink:href="#DejaVuSans-72" x="326.611328"/>
      <use xlink:href="#DejaVuSans-61" x="367.724609"/>
      <use xlink:href="#DejaVuSans-73" x="429.003906"/>
     </g>
    </g>
   </g>
  </g>
 </g>
 <defs>
  <clipPath id="p7f4d0a6a7a">
   <rect x="54" y="34.56" width="334.8" height="195.84"/>
  </clipPath>
 </defs>
</svg>
